# xmcd CD database file
#
# Track frame offsets:
#	182
#	22345
#	45545
#	63007
#	81582
#	105432
#	118820
#	137995
#	155882
#	167957
#	184295
#	197557
#
# Disc length: 2746 seconds
#
# Revision: 0
# Processed by: cddbd v1.4PL0 Copyright (c) Steve Scherf et al.
# Submitted via: CDex 1.50
#
DISCID=b00ab80c
DTITLE=Jayne Cortez and The Firespitters - Taking The Blues Back Home
DYEAR=1996
DGENRE=Jazz
TTITLE0=Taking The Blues Back Home
TTITLE1=Bumblebee, You Saw Big Mama
TTITLE2=Mojo 96
TTITLE3=Cultural Operations
TTITLE4=The Guitars I Used To Know
TTITLE5=Talk To Me (For Don Cherry)
TTITLE6=I Have Been Searching
TTITLE7=Global Inequalities
TTITLE8=Blues Bop For Diz
TTITLE9=You Can Be
TTITLE10=Endangered Species List Blues
TTITLE11=Nobody Knows A Thing
EXTD=YEAR: 1996
EXTT0=
EXTT1=
EXTT2=
EXTT3=
EXTT4=
EXTT5=
EXTT6=
EXTT7=
EXTT8=
EXTT9=
EXTT10=
EXTT11=
PLAYORDER=
